{
  "title": "Little Mix - Black Magic (2015.Pop)",
  "uid": 12184527,
  "size": 118583824,
  "categoryP": "video",
  "categoryS": "music_videos",
  "magnet": "?xt=urn:btih:22997d821fb5d7773e58bbd39c6f6f0aeeede13b&amp;dn=Little+Mix+-+Black+Magic+%282015.Pop%29&amp;tr=udp%3A%2F%2Ftracker.openbittorrent.com%3A80&amp;tr=udp%3A%2F%2Fopen.demonii.com%3A1337&amp;tr=udp%3A%2F%2Ftracker.coppersurfer.tk%3A6969&amp;tr=udp%3A%2F%2Fexodus.desync.com%3A6969",
  "seeders": 48,
  "leechers": 7,
  "uploader": "MeRaDil",
  "files": 1,
  "time": 1438523248,
  "description": "LITTLE MIX - BLACK MAGIC\n\n &lt;a href=&quot;\nhttp://gifyu.com/images/BlackMagic.png&quot; rel=&quot;nofollow&quot; target=&quot;_NEW&quot;&gt;\nhttp://gifyu.com/images/BlackMagic.png&lt;/a&gt;\n &lt;a href=&quot;\nhttp://gifyu.com/images/BlackMagic1.png&quot; rel=&quot;nofollow&quot; target=&quot;_NEW&quot;&gt;\nhttp://gifyu.com/images/BlackMagic1.png&lt;/a&gt;\n\n\nGeneral\nLittle Mix - Black Magic\nFormat                                   : MPEG-4\nFormat profile                           : Base Media\nCodec ID                                 : isom\nFile size                                : 113 MiB\nDuration                                 : 3mn 45s\nOverall bit rate                         : 4 203 Kbps\nMusicVid name                            : Black Magic\nAlbum                                    : Get Weird\nPerformer                                : Little Mix\nGenre                                    : Pop\nContentType                              : Music Video\nRecorded date                            : 2015\nRating                                   : ***\nMake                                     : MeRaDil\nRelease                                  : UK . may 29 . 2015\n\nVideo\nID                                       : 1\nFormat                                   : AVC\nFormat/Info                              : Advanced Video Codec\nFormat profile                           : &lt;a class=&quot;__cf_email__&quot; href=&quot;/cdn-cgi/l/email-protection&quot; data-cfemail=&quot;367e5f515e767a021806&quot;&gt;[email&amp;#160;protected]&lt;/a&gt;&lt;script data-cfhash='f9e31' type=&quot;text/javascript&quot;&gt;\n/* &lt;![CDATA[ */!function(){try{var t=&quot;currentScript&quot;in document?document.currentScript:function(){for(var t=document.getElementsByTagName(&quot;script&quot;),e=t.length;e--;)if(t[e].getAttribute(&quot;data-cfhash&quot;))return t[e]}();if(t&amp;&amp;t.previousSibling){var e,r,n,i,c=t.previousSibling,a=c.getAttribute(&quot;data-cfemail&quot;);if(a){for(e=&quot;&quot;,r=parseInt(a.substr(0,2),16),n=2;a.length-n;n+=2)i=parseInt(a.substr(n,2),16)^r,e+=String.fromCharCode(i);e=document.createTextNode(e),c.parentNode.replaceChild(e,c)}t.parentNode.removeChild(t);}}catch(u){}}()/* ]]&gt; */&lt;/script&gt;\nFormat settings, CABAC                   : Yes\nFormat settings, ReFrames                : 2 frames\nCodec ID                                 : avc1\nCodec ID/Info                            : Advanced Video Coding\nDuration                                 : 3mn 45s\nBit rate                                 : 3 941 Kbps\nWidth                                    : 1 920 pixels\nHeight                                   : 1 080 pixels\nDisplay aspect ratio                     : 16:9\nFrame rate mode                          : Variable\nFrame rate                               : 23.976 fps\nMinimum frame rate                       : 23.974 fps\nMaximum frame rate                       : 23.981 fps\nColor space                              : YUV\nChroma subsampling                       : 4:2:0\nBit depth                                : 8 bits\nScan type                                : Progressive\nBits/(Pixel*Frame)                       : 0.079\nStream size                              : 106 MiB (94%)\n\nAudio\nID                                       : 2\nFormat                                   : AAC\nFormat/Info                              : Advanced Audio Codec\nFormat profile                           : LC\nCodec ID                                 : 40\nDuration                                 : 3mn 45s\nBit rate mode                            : Constant\nBit rate                                 : 256 Kbps\nChannel(s)                               : 2 channels\nChannel positions                        : Front: L R\nSampling rate                            : 44.1 KHz\nCompression mode                         : Lossy\nStream size                              : 6.89 MiB (6%)\n &lt;a href=&quot;\nhttps://thepiratebay.se/user/MeRaDil&quot; rel=&quot;nofollow&quot; target=&quot;_NEW&quot;&gt;\nhttps://thepiratebay.se/user/MeRaDil&lt;/a&gt;\n\nLittle Mix * Get Weird * Pop * Promo",
  "parsed": {
    "xt": "urn:btih:22997d821fb5d7773e58bbd39c6f6f0aeeede13b",
    "dn": "Little Mix - Black Magic (2015.Pop)",
    "tr": [
      "udp://exodus.desync.com:6969",
      "udp://open.demonii.com:1337",
      "udp://tracker.coppersurfer.tk:6969",
      "udp://tracker.openbittorrent.com:80"
    ],
    "infoHash": "22997d821fb5d7773e58bbd39c6f6f0aeeede13b",
    "infoHashBuffer": {
      "type": "Buffer",
      "data": [
        34,
        153,
        125,
        130,
        31,
        181,
        215,
        119,
        62,
        88,
        187,
        211,
        156,
        111,
        111,
        10,
        238,
        237,
        225,
        59
      ]
    },
    "name": "Little Mix - Black Magic (2015.Pop)",
    "announce": [
      "udp://exodus.desync.com:6969",
      "udp://open.demonii.com:1337",
      "udp://tracker.coppersurfer.tk:6969",
      "udp://tracker.openbittorrent.com:80"
    ],
    "urlList": []
  },
  "previous": 13,
  "peers": 9,
  "last_updated": "2016-12-26T18:49:56.293Z"
}